<svg xmlns="http://www.w3.org/2000/svg" viewBox="0 0 48 48"><path d="M40.12 15.71 29.29 4.88A3 3 0 0 0 27.17 4H10a3 3 0 0 0-3 3v5a1 1 0 0 0 2 0V7a1 1 0 0 1 1-1h17v9a3 3 0 0 0 3 3h9v23a1 1 0 0 1-1 1H10a1 1 0 0 1-1-1V16a1 1 0 0 0-2 0v25a3 3 0 0 0 3 3h28a3 3 0 0 0 3-3V17.83a3 3 0 0 0-.88-2.12ZM29 15V7.41L37.59 16H30a1 1 0 0 1-1-1Zm-5 6a8 8 0 1 0 8 8 8 8 0 0 0-8-8Zm0 14a6 6 0 1 1 6-6 6 6 0 0 1-6 6Zm4-6a1 1 0 0 1-1 1h-2v2a1 1 0 0 1-2 0v-2h-2a1 1 0 0 1 0-2h2v-2a1 1 0 0 1 2 0v2h2a1 1 0 0 1 1 1Z" data-name="05 Add Files"/></svg>